<svg width="20" height="20" viewBox="0 0 20 20" fill="none" xmlns="http://www.w3.org/2000/svg">
    <path fill-rule="evenodd" clip-rule="evenodd" d="M2.81535 4.58333C2.93822 4.43143 3.12572 4.33325 3.33338 4.33325H16.6667C16.8744 4.33325 17.0619 4.43143 17.1847 4.58333L10 9.61262L2.81535 4.58333ZM0.666771 4.982C0.6666 4.99207 0.66658 5.00213 0.666712 5.01219V14.9999C0.666712 16.4689 1.86443 17.6666 3.33338 17.6666H16.6667C18.1357 17.6666 19.3334 16.4689 19.3334 14.9999V5.0122C19.3335 5.00213 19.3335 4.99206 19.3333 4.98198C19.3236 3.52123 18.1297 2.33325 16.6667 2.33325H3.33338C1.8704 2.33325 0.676464 3.52124 0.666771 4.982ZM17.3334 6.9206V14.9999C17.3334 15.3643 17.0311 15.6666 16.6667 15.6666H3.33338C2.969 15.6666 2.66671 15.3643 2.66671 14.9999V6.92059L9.42658 11.6525C9.7709 11.8935 10.2292 11.8935 10.5735 11.6525L17.3334 6.9206Z" fill="white"/>
</svg>